<?xml version="1.0" standalone="no"?>
<!DOCTYPE svg PUBLIC "-//W3C//DTD SVG 20010904//EN"
 "http://www.w3.org/TR/2001/REC-SVG-20010904/DTD/svg10.dtd">
<svg version="1.0" xmlns="http://www.w3.org/2000/svg"
 width="700.000000pt" height="700.000000pt" viewBox="0 0 700.000000 700.000000"
 preserveAspectRatio="xMidYMid meet">
<metadata>
Created by potrace 1.11, written by Peter Selinger 2001-2013
</metadata>
<g transform="translate(0.000000,700.000000) scale(0.100000,-0.100000)"
fill="#000000" stroke="none">
<path d="M3160 6989 c-717 -70 -1401 -362 -1945 -830 -695 -597 -1129 -1445
-1206 -2357 -15 -178 -6 -603 15 -757 92 -650 320 -1194 722 -1715 113 -148
435 -469 584 -584 558 -431 1153 -666 1859 -736 133 -13 489 -13 622 0 349 35
685 113 982 231 246 97 570 276 782 432 221 163 494 425 659 632 408 513 643
1065 743 1750 25 173 25 716 0 894 -122 854 -489 1560 -1107 2133 -521 483
-1178 790 -1910 893 -137 20 -653 29 -800 14z m1510 -2609 l0 -250 -415 0
-415 0 0 -1040 0 -1040 -330 0 -330 0 0 1040 0 1040 -415 0 -415 0 0 250 0
250 1160 0 1160 0 0 -250z"/>
</g>
</svg>
